<svg width="48" height="50" viewBox="0 0 48 50" fill="none" xmlns="http://www.w3.org/2000/svg" xmlns:xlink="http://www.w3.org/1999/xlink">
<path d="M29.921,11.799C29.335,11.213 28.385,11.213 27.799,11.799C27.214,12.385 27.214,13.334 27.799,13.92L29.921,11.799ZM41,24.999L42.061,26.06C42.342,25.779 42.5,25.397 42.5,24.999C42.5,24.602 42.342,24.22 42.061,23.939L41,24.999ZM27.799,36.079C27.214,36.665 27.214,37.614 27.799,38.2C28.385,38.786 29.335,38.786 29.921,38.2L27.799,36.079ZM27.799,13.92L39.939,26.06L42.061,23.939L29.921,11.799L27.799,13.92ZM39.939,23.939L27.799,36.079L29.921,38.2L42.061,26.06L39.939,23.939Z" fill="#FFFFFF"/>
<line x1="7" y1="23.5" x2="40.66" y2="23.5" stroke="#FFFFFF" stroke-width="1.5" stroke-miterlimit="10" stroke-linecap="round" stroke-linejoin="round"/>
</svg>
