<svg width="48" height="50" viewBox="0 0 48 50" fill="none" xmlns="http://www.w3.org/2000/svg" xmlns:xlink="http://www.w3.org/1999/xlink">
<path d="M29.921,11.8C29.335,11.214 28.385,11.214 27.799,11.8C27.214,12.385 27.214,13.335 27.799,13.921L29.921,11.8ZM41,25L42.061,26.061C42.342,25.78 42.5,25.398 42.5,25C42.5,24.603 42.342,24.221 42.061,23.94L41,25ZM27.799,36.08C27.214,36.666 27.214,37.615 27.799,38.201C28.385,38.787 29.335,38.787 29.921,38.201L27.799,36.08ZM27.799,13.921L39.939,26.061L42.061,23.94L29.921,11.8L27.799,13.921ZM39.939,23.94L27.799,36.08L29.921,38.201L42.061,26.061L39.939,23.94Z" fill="#FFFFFF"/>
<line x1="7" y1="23.5" x2="40.66" y2="23.5" stroke="#FFFFFF" stroke-width="1.5" stroke-miterlimit="10" stroke-linecap="round" stroke-linejoin="round"/>
</svg>
