<svg width="28" height="30" viewBox="0 0 28 30" fill="none" xmlns="http://www.w3.org/2000/svg" xmlns:xlink="http://www.w3.org/1999/xlink">
<path d="M10.5,28.166L17.5,28.166L17.5,25.166L10.5,25.166L10.5,28.166ZM17.5,28.166C20.565,28.166 23.1,27.563 24.831,25.831C26.563,24.1 27.167,21.564 27.167,18.5L24.167,18.5C24.167,21.268 23.604,22.816 22.71,23.71C21.817,24.603 20.269,25.166 17.5,25.166L17.5,28.166ZM27.167,18.5L27.167,11.5L24.167,11.5L24.167,18.5L27.167,18.5ZM27.167,11.5C27.167,8.435 26.563,5.9 24.831,4.168C23.1,2.437 20.565,1.833 17.5,1.833L17.5,4.833C20.269,4.833 21.817,5.396 22.71,6.29C23.604,7.183 24.167,8.731 24.167,11.5L27.167,11.5ZM17.5,1.833L10.5,1.833L10.5,4.833L17.5,4.833L17.5,1.833ZM10.5,1.833C7.435,1.833 4.9,2.437 3.168,4.168C1.437,5.9 0.833,8.435 0.833,11.5L3.833,11.5C3.833,8.731 4.396,7.183 5.29,6.29C6.183,5.396 7.731,4.833 10.5,4.833L10.5,1.833ZM0.833,11.5L0.833,18.5L3.833,18.5L3.833,11.5L0.833,11.5ZM0.833,18.5C0.833,21.564 1.437,24.1 3.168,25.831C4.9,27.563 7.435,28.166 10.5,28.166L10.5,25.166C7.731,25.166 6.183,24.603 5.29,23.71C4.396,22.816 3.833,21.268 3.833,18.5L0.833,18.5Z" fill="#96A0B5"/>
<path d="M16.583,15C16.583,16.427 15.427,17.584 14,17.584L14,20.584C17.084,20.584 19.583,18.084 19.583,15L16.583,15ZM14,17.584C12.573,17.584 11.417,16.427 11.417,15L8.417,15C8.417,18.084 10.916,20.584 14,20.584L14,17.584ZM11.417,15C11.417,13.574 12.573,12.417 14,12.417L14,9.417C10.916,9.417 8.417,11.917 8.417,15L11.417,15ZM14,12.417C15.427,12.417 16.583,13.574 16.583,15L19.583,15C19.583,11.917 17.084,9.417 14,9.417L14,12.417Z" fill="#96A0B5"/>
<path d="M20.575,7.166C19.471,7.166 18.575,8.062 18.575,9.166C18.575,10.271 19.471,11.166 20.575,11.166L20.575,7.166ZM20.589,11.166C21.693,11.166 22.589,10.271 22.589,9.166C22.589,8.062 21.693,7.166 20.589,7.166L20.589,11.166ZM20.575,11.166L20.589,11.166L20.589,7.166L20.575,7.166L20.575,11.166Z" fill="#96A0B5"/>
</svg>
