<svg width="22" height="42" viewBox="0 0 22 42" fill="none" xmlns="http://www.w3.org/2000/svg" xmlns:xlink="http://www.w3.org/1999/xlink">
<path d="M1.376,37.065C0.595,37.846 0.595,39.113 1.376,39.894C2.157,40.675 3.423,40.675 4.204,39.894L1.376,37.065ZM4.204,0.105C3.423,-0.676 2.157,-0.676 1.376,0.105C0.595,0.886 0.595,2.153 1.376,2.934L4.204,0.105ZM4.204,39.894L19.418,24.68L16.589,21.852L1.376,37.065L4.204,39.894ZM19.418,24.68C21.995,22.103 21.995,17.896 19.418,15.319L16.589,18.147C17.605,19.163 17.605,20.836 16.589,21.852L19.418,24.68ZM19.418,15.319L4.204,0.105L1.376,2.934L16.589,18.147L19.418,15.319Z" fill="#0C0A0A"/>
</svg>
