<svg width="114" height="114" viewBox="0 0 114 114" fill="none" xmlns="http://www.w3.org/2000/svg" xmlns:xlink="http://www.w3.org/1999/xlink">
<path d="M112.835,51.81L100.273,51.445L90.641,51.152C90.129,47.791 89.103,44.612 87.675,41.653C87.528,41.36 87.382,41.105 87.235,40.812C86.979,40.301 86.723,39.789 86.43,39.314C85.111,36.976 83.5,34.784 81.559,32.738C68.485,18.926 46.95,18.634 32.777,31.349C30.726,33.213 28.236,36.83 28.236,36.83C25.636,40.483 23.768,44.685 22.816,49.179L22.779,49.179L13.111,48.887C14.649,39.826 19.044,31.166 26.259,24.37C43.911,7.709 71.854,8.513 88.554,26.161C92.143,29.961 94.926,34.236 96.904,38.766L110.381,39.168C107.891,31.349 103.642,23.969 97.636,17.611C76.212,-4.969 40.358,-5.992 17.689,15.382C4.724,27.622 -1.172,44.576 0.183,61.091L12.745,61.456L22.413,61.712C23.439,68.398 26.442,74.829 31.422,80.09C44.497,93.901 66.36,94.522 80.204,81.478C83.097,78.738 85.404,75.632 87.126,72.271C87.126,72.234 87.162,72.161 87.199,72.125C87.565,71.394 87.931,70.663 88.224,69.896C88.407,69.494 88.591,69.092 88.737,68.654C88.81,68.435 88.884,68.215 88.957,67.996C89.469,66.571 89.909,65.11 90.239,63.612L99.907,63.904C98.369,72.965 93.974,81.625 86.759,88.421C69.107,105.082 41.164,104.278 24.464,86.63C20.875,82.83 18.092,78.555 16.114,74.025L2.637,73.623C5.127,81.442 9.375,88.822 15.382,95.18C36.806,117.833 72.66,118.856 95.329,97.445C108.294,85.205 114.19,68.252 112.835,51.737L112.835,51.81ZM53.14,34.747C60.061,33.688 67.349,35.88 72.513,41.36C80.863,50.166 80.46,64.123 71.634,72.454C69.437,74.536 66.946,76.034 64.273,77.057C64.236,77.057 64.163,77.057 64.126,77.094C63.577,77.313 62.991,77.459 62.442,77.642C62.185,77.715 61.966,77.752 61.709,77.825C61.307,77.934 60.904,78.007 60.501,78.08C60.098,78.154 59.659,78.227 59.256,78.263C58.963,78.263 58.706,78.336 58.413,78.373C57.901,78.409 57.351,78.446 56.839,78.446C56.619,78.446 56.436,78.446 56.216,78.446C55.667,78.446 55.117,78.409 54.568,78.336C54.385,78.336 54.202,78.336 54.019,78.3C53.506,78.227 52.993,78.154 52.48,78.044C52.261,78.007 52.041,77.971 51.821,77.934C51.418,77.861 51.016,77.715 50.613,77.605C50.32,77.532 49.99,77.459 49.697,77.35C49.477,77.277 49.258,77.167 49.038,77.094C48.562,76.911 48.086,76.765 47.61,76.546C45.009,75.413 42.556,73.732 40.468,71.54C34.755,65.475 33.144,56.998 35.561,49.618C38.198,42.128 44.9,36.355 53.103,34.784L53.14,34.747Z" fill="#FFFFFF"/>
</svg>
