<svg width="28" height="30" viewBox="0 0 28 30" fill="none" xmlns="http://www.w3.org/2000/svg" xmlns:xlink="http://www.w3.org/1999/xlink">
<path d="M20.415,17.778C20.067,17.604 18.354,16.764 18.035,16.649C17.715,16.533 17.483,16.476 17.251,16.823C17.019,17.169 16.351,17.951 16.147,18.183C15.944,18.414 15.74,18.442 15.393,18.268C14.366,17.861 13.418,17.279 12.592,16.548C11.83,15.847 11.177,15.037 10.653,14.145C10.451,13.798 10.632,13.611 10.807,13.438C10.963,13.283 11.156,13.034 11.329,12.831C11.472,12.655 11.589,12.461 11.677,12.252C11.724,12.156 11.745,12.051 11.74,11.945C11.735,11.838 11.703,11.735 11.648,11.644C11.561,11.471 10.864,9.764 10.575,9.069C10.292,8.394 10.005,8.485 9.79,8.474C9.587,8.464 9.355,8.462 9.123,8.462C8.946,8.466 8.773,8.508 8.613,8.583C8.453,8.658 8.311,8.765 8.194,8.897C7.8,9.268 7.489,9.717 7.279,10.215C7.069,10.713 6.965,11.249 6.975,11.789C7.088,13.097 7.582,14.344 8.397,15.376C9.891,17.606 11.941,19.41 14.347,20.612C14.997,20.89 15.659,21.134 16.334,21.343C17.045,21.558 17.796,21.604 18.528,21.479C19.013,21.381 19.473,21.184 19.877,20.901C20.282,20.617 20.623,20.253 20.879,19.832C21.108,19.314 21.178,18.74 21.082,18.183C20.996,18.037 20.764,17.951 20.415,17.778L20.415,17.778ZM23.92,5.064C21.529,2.684 18.35,1.251 14.975,1.03C11.601,0.809 8.261,1.817 5.577,3.865C2.893,5.913 1.049,8.862 0.386,12.163C-0.276,15.464 0.29,18.892 1.978,21.809L0,29L7.391,27.072C9.435,28.18 11.726,28.76 14.053,28.76L14.059,28.76C16.816,28.759 19.512,27.944 21.804,26.419C24.096,24.893 25.883,22.726 26.938,20.19C27.993,17.654 28.27,14.864 27.733,12.172C27.196,9.48 25.869,7.006 23.92,5.064L23.92,5.064ZM20.216,24.653C18.371,25.805 16.237,26.416 14.059,26.416L14.053,26.416C11.978,26.416 9.941,25.86 8.156,24.807L7.733,24.558L3.347,25.704L4.517,21.447L4.243,21.01C3.025,19.077 2.411,16.828 2.477,14.548C2.544,12.268 3.288,10.059 4.615,8.199C5.943,6.34 7.795,4.914 9.937,4.103C12.079,3.291 14.414,3.13 16.648,3.639C18.882,4.149 20.913,5.306 22.486,6.965C24.059,8.624 25.103,10.71 25.485,12.96C25.867,15.209 25.57,17.52 24.632,19.602C23.695,21.683 22.158,23.441 20.216,24.653Z" fill="#96A0B5"/>
</svg>
