<svg width="114" height="114" viewBox="0 0 114 114" fill="none" xmlns="http://www.w3.org/2000/svg" xmlns:xlink="http://www.w3.org/1999/xlink">
<path d="M112.835,51.809L100.273,51.444L90.641,51.151C90.129,47.79 89.103,44.611 87.675,41.652C87.528,41.359 87.382,41.104 87.235,40.811C86.979,40.3 86.723,39.788 86.43,39.313C85.111,36.975 83.5,34.783 81.559,32.737C68.485,18.925 46.95,18.633 32.777,31.348C30.726,33.212 28.236,36.829 28.236,36.829C25.636,40.482 23.768,44.684 22.816,49.178L22.779,49.178L13.111,48.886C14.649,39.825 19.044,31.165 26.259,24.369C43.911,7.708 71.854,8.512 88.554,26.16C92.143,29.96 94.926,34.235 96.904,38.765L110.381,39.167C107.891,31.348 103.642,23.968 97.636,17.61C76.212,-4.97 40.358,-5.993 17.689,15.381C4.724,27.621 -1.172,44.575 0.183,61.09L12.745,61.455L22.413,61.711C23.439,68.397 26.442,74.828 31.422,80.089C44.497,93.9 66.36,94.521 80.204,81.477C83.097,78.737 85.404,75.631 87.126,72.27C87.126,72.233 87.162,72.16 87.199,72.124C87.565,71.393 87.931,70.662 88.224,69.895C88.407,69.493 88.591,69.091 88.737,68.653C88.81,68.434 88.884,68.214 88.957,67.995C89.469,66.57 89.909,65.109 90.239,63.611L99.907,63.903C98.369,72.964 93.974,81.624 86.759,88.42C69.107,105.081 41.164,104.277 24.464,86.629C20.875,82.829 18.092,78.554 16.114,74.024L2.637,73.622C5.127,81.441 9.375,88.821 15.382,95.179C36.806,117.832 72.66,118.855 95.329,97.444C108.294,85.204 114.19,68.251 112.835,51.736L112.835,51.809ZM53.14,34.746C60.061,33.687 67.349,35.879 72.513,41.359C80.863,50.165 80.46,64.122 71.634,72.453C69.437,74.535 66.946,76.033 64.273,77.056C64.236,77.056 64.163,77.056 64.126,77.093C63.577,77.312 62.991,77.458 62.442,77.641C62.185,77.714 61.966,77.751 61.709,77.824C61.307,77.933 60.904,78.006 60.501,78.079C60.098,78.153 59.659,78.226 59.256,78.262C58.963,78.262 58.706,78.335 58.413,78.372C57.901,78.408 57.351,78.445 56.839,78.445C56.619,78.445 56.436,78.445 56.216,78.445C55.667,78.445 55.117,78.408 54.568,78.335C54.385,78.335 54.202,78.335 54.019,78.299C53.506,78.226 52.993,78.153 52.48,78.043C52.261,78.006 52.041,77.97 51.821,77.933C51.418,77.86 51.016,77.714 50.613,77.604C50.32,77.531 49.99,77.458 49.697,77.349C49.477,77.276 49.258,77.166 49.038,77.093C48.562,76.91 48.086,76.764 47.61,76.545C45.009,75.412 42.556,73.731 40.468,71.539C34.755,65.474 33.144,56.997 35.561,49.617C38.198,42.127 44.9,36.354 53.103,34.783L53.14,34.746Z" fill="#01737F"/>
</svg>
