<svg width="28" height="32" viewBox="0 0 28 32" fill="none" xmlns="http://www.w3.org/2000/svg" xmlns:xlink="http://www.w3.org/1999/xlink">
<path d="M2.471,23.889L2.325,23.889L2.325,31.159L0.896,31.159L0.896,0.176L2.325,0.176L2.325,14.097L2.471,14.097C4.375,9.566 8.441,6.314 13.934,6.314C21.075,6.314 26.752,12.014 26.752,19.102C26.752,26.19 21.039,31.927 13.897,31.89C8.807,31.89 4.302,28.967 2.434,23.889L2.471,23.889ZM25.433,19.066C25.433,12.708 20.306,7.702 13.934,7.702C7.562,7.702 2.618,12.708 2.618,19.029C2.618,25.35 7.671,30.392 13.934,30.392C20.27,30.392 25.433,25.314 25.433,19.066Z" fill="#01737F"/>
</svg>
