<svg width="22" height="26" viewBox="0 0 22 26" fill="none" xmlns="http://www.w3.org/2000/svg" xmlns:xlink="http://www.w3.org/1999/xlink">
<path d="M1.039,19.386L0.921,19.386L0.921,25.314L-0.234,25.314L-0.234,0.051L0.921,0.051L0.921,11.402L1.039,11.402C2.579,7.707 5.865,5.056 10.306,5.056C16.079,5.056 20.668,9.703 20.668,15.483C20.668,21.263 16.049,25.94 10.276,25.91C6.161,25.91 2.52,23.527 1.01,19.386L1.039,19.386ZM19.602,15.453C19.602,10.269 15.457,6.188 10.306,6.188C5.155,6.188 1.158,10.269 1.158,15.423C1.158,20.577 5.243,24.689 10.306,24.689C15.428,24.689 19.602,20.548 19.602,15.453Z" fill="#FFFFFF"/>
</svg>
