<svg width="92" height="94" viewBox="0 0 92 94" fill="none" xmlns="http://www.w3.org/2000/svg" xmlns:xlink="http://www.w3.org/1999/xlink">
<path d="M91.214,42.245L81.059,41.948L73.273,41.709C72.859,38.968 72.03,36.376 70.875,33.963C70.757,33.725 70.638,33.516 70.52,33.278C70.313,32.861 70.105,32.444 69.868,32.057C68.803,30.15 67.5,28.362 65.931,26.694C55.362,15.433 37.954,15.194 26.497,25.562C24.839,27.081 22.826,30.031 22.826,30.031C20.724,33.01 19.214,36.436 18.444,40.1L18.414,40.1L10.599,39.862C11.842,32.474 15.395,25.413 21.227,19.872C35.497,6.287 58.086,6.942 71.586,21.331C74.487,24.43 76.737,27.916 78.336,31.61L89.23,31.937C87.217,25.562 83.783,19.544 78.928,14.36C61.609,-4.051 32.625,-4.886 14.299,12.543C3.819,22.523 -0.947,36.347 0.148,49.813L10.303,50.111L18.118,50.319C18.947,55.771 21.375,61.014 25.401,65.305C35.97,76.566 53.645,77.072 64.836,66.437C67.174,64.202 69.039,61.67 70.431,58.929C70.431,58.899 70.461,58.84 70.49,58.81C70.786,58.214 71.082,57.618 71.319,56.993C71.467,56.665 71.615,56.337 71.734,55.98C71.793,55.801 71.852,55.622 71.911,55.443C72.326,54.281 72.681,53.09 72.947,51.868L80.763,52.107C79.52,59.495 75.967,66.556 70.135,72.097C55.865,85.682 33.276,85.027 19.776,70.637C16.875,67.539 14.625,64.053 13.026,60.359L2.132,60.031C4.145,66.407 7.579,72.425 12.434,77.609C29.753,96.08 58.737,96.914 77.063,79.456C87.543,69.475 92.309,55.652 91.214,42.186L91.214,42.245ZM42.957,28.333C48.553,27.469 54.444,29.256 58.618,33.725C65.368,40.905 65.043,52.285 57.908,59.078C56.132,60.776 54.118,61.998 51.957,62.832C51.928,62.832 51.868,62.832 51.839,62.862C51.395,63.04 50.921,63.159 50.477,63.308C50.27,63.368 50.092,63.398 49.885,63.457C49.559,63.547 49.234,63.606 48.908,63.666C48.582,63.726 48.227,63.785 47.901,63.815C47.664,63.815 47.457,63.874 47.22,63.904C46.806,63.934 46.362,63.964 45.947,63.964C45.77,63.964 45.622,63.964 45.444,63.964C45,63.964 44.556,63.934 44.112,63.874C43.964,63.874 43.816,63.874 43.668,63.845C43.253,63.785 42.839,63.726 42.424,63.636C42.247,63.606 42.069,63.577 41.891,63.547C41.566,63.487 41.24,63.368 40.914,63.279C40.678,63.219 40.411,63.159 40.174,63.07C39.997,63.011 39.819,62.921 39.641,62.862C39.257,62.713 38.872,62.593 38.487,62.415C36.385,61.491 34.401,60.121 32.714,58.333C28.095,53.388 26.793,46.476 28.747,40.458C30.878,34.351 36.296,29.643 42.928,28.362L42.957,28.333Z" fill="#FFFFFF"/>
</svg>
