<svg width="42" height="56" viewBox="0 0 42 56" fill="none" xmlns="http://www.w3.org/2000/svg" xmlns:xlink="http://www.w3.org/1999/xlink">
<path d="M0.664,38.663L12.713,38.663C12.823,42.134 16.265,44.655 20.733,44.655C25.458,44.655 28.461,42.353 28.461,38.882C28.461,34.461 23.736,33.474 18.902,32.232C8.868,29.711 1.726,25.546 1.763,15.827C1.763,6.656 10.076,-0.469 20.99,-0.432C31.903,-0.396 40.18,6.802 40.18,16.265L28.131,16.155C28.131,12.575 24.762,10.565 20.99,10.565C17.144,10.565 13.848,12.502 13.848,15.754C13.848,19.7 18.463,20.686 23.297,21.928C30.438,23.755 40.29,26.167 40.253,38.699C40.253,48.126 31.354,55.762 20.55,55.725C9.161,55.725 0.664,47.98 0.701,38.663L0.664,38.663Z" fill="#FFFFFF"/>
</svg>
