<svg width="18" height="28" viewBox="0 0 18 28" fill="none" xmlns="http://www.w3.org/2000/svg" xmlns:xlink="http://www.w3.org/1999/xlink">
<path d="M0.97,19.315L2.399,19.315C2.399,21.982 5.292,24.613 9.504,24.613C13.459,24.613 16.608,22.238 16.608,19.351C16.608,15.442 13.312,14.419 9.504,13.505C4.523,12.3 1.41,10.765 1.447,6.892C1.483,3.019 5.329,0.498 9.65,0.498C13.971,0.498 17.817,3.311 17.817,6.892L16.389,6.892C16.389,4.079 13.386,1.923 9.65,1.923C6.244,1.923 2.838,3.859 2.838,6.892C2.838,10.29 6.207,11.167 9.833,12.117C13.642,13.14 18,14.126 18,19.351C18,23.042 14.191,26.038 9.467,26.038C4.23,26.038 0.934,22.749 0.934,19.351L0.97,19.315Z" fill="#01737F"/>
</svg>
