<svg width="14" height="22" viewBox="0 0 14 22" fill="none" xmlns="http://www.w3.org/2000/svg" xmlns:xlink="http://www.w3.org/1999/xlink">
<path d="M0.234,14.548L1.388,14.548C1.388,16.723 3.727,18.868 7.132,18.868C10.329,18.868 12.875,16.931 12.875,14.578C12.875,11.39 10.211,10.556 7.132,9.811C3.105,8.828 0.589,7.577 0.618,4.419C0.648,1.261 3.757,-0.795 7.25,-0.795C10.743,-0.795 13.852,1.499 13.852,4.419L12.697,4.419C12.697,2.125 10.27,0.367 7.25,0.367C4.497,0.367 1.743,1.946 1.743,4.419C1.743,7.189 4.467,7.904 7.398,8.679C10.477,9.513 14,10.317 14,14.578C14,17.587 10.921,20.03 7.102,20.03C2.868,20.03 0.204,17.348 0.204,14.578L0.234,14.548Z" fill="#FFFFFF"/>
</svg>
