<svg width="28" height="52" viewBox="0 0 28 52" fill="none" xmlns="http://www.w3.org/2000/svg" xmlns:xlink="http://www.w3.org/1999/xlink">
<path d="M1.316,48.346C0.535,49.127 0.535,50.393 1.316,51.174C2.097,51.955 3.363,51.955 4.144,51.174L1.316,48.346ZM22.29,30.2L23.704,31.614L22.29,30.2ZM22.29,21.8L23.704,20.386L22.29,21.8ZM4.144,0.826C3.363,0.045 2.097,0.045 1.316,0.826C0.535,1.607 0.535,2.873 1.316,3.654L4.144,0.826ZM4.144,51.174L23.704,31.614L20.876,28.786L1.316,48.346L4.144,51.174ZM23.704,31.614C26.795,28.523 26.795,23.477 23.704,20.386L20.876,23.214C22.405,24.743 22.405,27.257 20.876,28.786L23.704,31.614ZM23.704,20.386L4.144,0.826L1.316,3.654L20.876,23.214L23.704,20.386Z" fill="#0C0A0A"/>
</svg>
