<svg width="42" height="56" viewBox="0 0 42 56" fill="none" xmlns="http://www.w3.org/2000/svg" xmlns:xlink="http://www.w3.org/1999/xlink">
<path d="M0.664,38.664L12.713,38.664C12.823,42.135 16.265,44.656 20.733,44.656C25.458,44.656 28.461,42.354 28.461,38.883C28.461,34.462 23.736,33.475 18.902,32.233C8.868,29.712 1.726,25.547 1.763,15.828C1.763,6.657 10.076,-0.468 20.99,-0.432C31.903,-0.395 40.18,6.803 40.18,16.266L28.131,16.156C28.131,12.576 24.762,10.566 20.99,10.566C17.144,10.566 13.848,12.503 13.848,15.755C13.848,19.701 18.463,20.687 23.297,21.929C30.438,23.756 40.29,26.168 40.253,38.7C40.253,48.127 31.354,55.763 20.55,55.726C9.161,55.726 0.664,47.981 0.701,38.664L0.664,38.664Z" fill="#031356"/>
</svg>
