<svg width="22" height="20" viewBox="0 0 22 20" fill="none" xmlns="http://www.w3.org/2000/svg" xmlns:xlink="http://www.w3.org/1999/xlink">
<path d="M0.635,9.454C0.635,3.674 5.313,-0.854 11.056,-0.854C16.799,-0.854 21.447,3.674 21.447,9.454L21.447,9.841L1.789,9.841C1.997,14.786 6.053,18.778 11.026,18.778C14.757,18.778 17.984,16.544 19.464,13.297L20.707,13.297C19.168,17.199 15.438,19.94 10.997,19.94C5.253,19.94 0.605,15.233 0.605,9.454L0.635,9.454ZM20.263,8.709C19.908,3.942 15.882,0.307 11.056,0.307C6.201,0.307 2.174,3.912 1.819,8.679L20.263,8.679L20.263,8.709Z" fill="#FFFFFF"/>
</svg>
