<svg width="34" height="46" viewBox="0 0 34 46" fill="none" xmlns="http://www.w3.org/2000/svg" xmlns:xlink="http://www.w3.org/1999/xlink">
<path d="M0.776,31.617L10.516,31.617C10.605,34.447 13.388,36.503 17,36.503C20.819,36.503 23.247,34.626 23.247,31.796C23.247,28.191 19.428,27.386 15.52,26.373C7.408,24.318 1.635,20.921 1.664,12.997C1.664,5.519 8.385,-0.29 17.207,-0.261C26.03,-0.231 32.72,5.638 32.72,13.354L22.98,13.265C22.98,10.345 20.257,8.707 17.207,8.707C14.099,8.707 11.434,10.286 11.434,12.937C11.434,16.155 15.164,16.959 19.072,17.972C24.845,19.462 32.809,21.428 32.78,31.647C32.78,39.333 25.586,45.559 16.852,45.53C7.645,45.53 0.776,39.214 0.806,31.617L0.776,31.617Z" fill="#FFFFFF"/>
</svg>
