<svg width="28" height="26" viewBox="0 0 28 26" fill="none" xmlns="http://www.w3.org/2000/svg" xmlns:xlink="http://www.w3.org/1999/xlink">
<path d="M0.459,13.066C0.459,5.978 6.246,0.424 13.351,0.424C20.456,0.424 26.205,5.978 26.205,13.066L26.205,13.541L1.888,13.541C2.144,19.606 7.161,24.502 13.314,24.502C17.928,24.502 21.92,21.762 23.752,17.779L25.29,17.779C23.385,22.565 18.771,25.927 13.277,25.927C6.173,25.927 0.423,20.154 0.423,13.066L0.459,13.066ZM24.74,12.152C24.301,6.306 19.32,1.849 13.351,1.849C7.344,1.849 2.364,6.27 1.924,12.116L24.74,12.116L24.74,12.152Z" fill="#FFFFFF"/>
</svg>
