<svg width="18" height="28" viewBox="0 0 18 28" fill="none" xmlns="http://www.w3.org/2000/svg" xmlns:xlink="http://www.w3.org/1999/xlink">
<path d="M0.97,19.314L2.399,19.314C2.399,21.981 5.292,24.612 9.503,24.612C13.459,24.612 16.608,22.237 16.608,19.35C16.608,15.441 13.312,14.418 9.503,13.504C4.523,12.299 1.41,10.764 1.446,6.891C1.483,3.018 5.328,0.497 9.65,0.497C13.971,0.497 17.817,3.31 17.817,6.891L16.389,6.891C16.389,4.078 13.385,1.922 9.65,1.922C6.244,1.922 2.838,3.859 2.838,6.891C2.838,10.289 6.207,11.166 9.833,12.116C13.642,13.139 18,14.126 18,19.35C18,23.041 14.191,26.037 9.467,26.037C4.23,26.037 0.934,22.748 0.934,19.35L0.97,19.314Z" fill="#FFFFFF"/>
</svg>
